HIERARCHY
ROOT Hips
{
	OFFSET 0.00000 0.00000 0.00000
	CHANNELS 6 Xposition Yposition Zposition Zrotation Yrotation Xrotation 
	JOINT LHipJoint
	{
		OFFSET 0 0 0
		CHANNELS 3 Zrotation Yrotation Xrotation
		JOINT LeftUpLeg
		{
			OFFSET 1.43652 -1.81092 0.91346
			CHANNELS 3 Zrotation Yrotation Xrotation
			JOINT LeftLeg
			{
				OFFSET 2.45984 -6.75837 0.00000
				CHANNELS 3 Zrotation Yrotation Xrotation
				JOINT LeftFoot
				{
					OFFSET 2.63718 -7.24559 0.00000
					CHANNELS 3 Zrotation Yrotation Xrotation
					JOINT LeftToeBase
					{
						OFFSET 0.19690 -0.54098 2.12239
						CHANNELS 3 Zrotation Yrotation Xrotation
						End Site
						{
							OFFSET 0.00000 -0.00000 1.10116
						}
					}
				}
			}
		}
	}
	JOINT RHipJoint
	{
		OFFSET 0 0 0
		CHANNELS 3 Zrotation Yrotation Xrotation
		JOINT RightUpLeg
		{
			OFFSET -1.35116 -1.81092 0.91345
			CHANNELS 3 Zrotation Yrotation Xrotation
			JOINT RightLeg
			{
				OFFSET -2.55576 -7.02189 0.00000
				CHANNELS 3 Zrotation Yrotation Xrotation
				JOINT RightFoot
				{
					OFFSET -2.61938 -7.19669 0.00000
					CHANNELS 3 Zrotation Yrotation Xrotation
					JOINT RightToeBase
					{
						OFFSET -0.32509 -0.89318 2.23646
						CHANNELS 3 Zrotation Yrotation Xrotation
						End Site
						{
							OFFSET -0.00000 -0.00000 1.19625
						}
					}
				}
			}
		}
	}
	JOINT LowerBack
	{
		OFFSET 0 0 0
		CHANNELS 3 Zrotation Yrotation Xrotation
		JOINT Spine
		{
			OFFSET 0.05193 2.08077 -0.11958
			CHANNELS 3 Zrotation Yrotation Xrotation
			JOINT Spine1
			{
				OFFSET 0.04960 2.08447 0.01967
				CHANNELS 3 Zrotation Yrotation Xrotation
				JOINT Neck
				{
					OFFSET 0 0 0
					CHANNELS 3 Zrotation Yrotation Xrotation
					JOINT Neck1
					{
						OFFSET -0.10699 1.82066 0.27584
						CHANNELS 3 Zrotation Yrotation Xrotation
						JOINT Head
						{
							OFFSET 0.14949 1.84747 -0.32279
							CHANNELS 3 Zrotation Yrotation Xrotation
							End Site
							{
								OFFSET 0.04969 1.88916 -0.14562
							}
						}
					}
				}
				JOINT LeftShoulder
				{
					OFFSET 0 0 0
					CHANNELS 3 Zrotation Yrotation Xrotation
					JOINT LeftArm
					{
						OFFSET 3.73629 1.27211 -0.12847
						CHANNELS 3 Zrotation Yrotation Xrotation
						JOINT LeftForeArm
						{
							OFFSET 5.10995 -0.00000 0.00000
							CHANNELS 3 Zrotation Yrotation Xrotation
							JOINT LeftHand
							{
								OFFSET 3.21207 -0.00000 0.00000
								CHANNELS 3 Zrotation Yrotation Xrotation
								JOINT LeftFingerBase
								{
									OFFSET 0 0 0
									CHANNELS 3 Zrotation Yrotation Xrotation
									JOINT LeftHandIndex1
									{
										OFFSET 0.63349 -0.00000 0.00000
										CHANNELS 3 Zrotation Yrotation Xrotation
										End Site
										{
											OFFSET 0.51074 -0.00000 0.00000
										}
									}
								}
								JOINT LThumb
								{
									OFFSET 0 0 0
									CHANNELS 3 Zrotation Yrotation Xrotation
									End Site
									{
										OFFSET 0.51853 -0.00000 0.51853
									}
								}
							}
						}
					}
				}
				JOINT RightShoulder
				{
					OFFSET 0 0 0
					CHANNELS 3 Zrotation Yrotation Xrotation
					JOINT RightArm
					{
						OFFSET -3.70251 1.29541 -0.35354
						CHANNELS 3 Zrotation Yrotation Xrotation
						JOINT RightForeArm
						{
							OFFSET -5.25109 -0.00000 0.00000
							CHANNELS 3 Zrotation Yrotation Xrotation
							JOINT RightHand
							{
								OFFSET -3.28364 -0.00000 0.00000
								CHANNELS 3 Zrotation Yrotation Xrotation
								JOINT RightFingerBase
								{
									OFFSET 0 0 0
									CHANNELS 3 Zrotation Yrotation Xrotation
									JOINT RightHandIndex1
									{
										OFFSET -0.59974 -0.00000 0.00000
										CHANNELS 3 Zrotation Yrotation Xrotation
										End Site
										{
											OFFSET -0.48353 -0.00000 0.00000
										}
									}
								}
								JOINT RThumb
								{
									OFFSET 0 0 0
									CHANNELS 3 Zrotation Yrotation Xrotation
									End Site
									{
										OFFSET -0.49091 -0.00000 0.49091
									}
								}
							}
						}
					}
				}
			}
		}
	}
}
MOTION
Frames: 12
Frame Time: 0.0555556
0.00 0.00 0.00 -7.9327 -1.9092 18.5997 0.0000 0.0000 0.0000 -10.6923 -5.1046 0.4754 1.7855 8.4042 23.9487 1.6156 -5.5363 26.5506 0.5868 -4.9046 -13.6367 0.0000 0.0000 0.0000 21.5912 6.9889 -6.4704 -3.8295 -11.9300 35.4848 -0.7195 -8.2408 15.3266 -0.1616 2.5899 -7.1391 5.9894 1.2372 5.4479 3.6851 2.3106 -2.4320 0.2529 0.9964 -5.5239 -11.7224 -8.0932 -21.3124 14.4036 -10.3483 13.5478 5.3655 -4.0615 9.1774 -0.0000 0.0000 0.0000 -88.3260 31.7593 32.2412 34.6580 -44.5663 -14.5728 -0.0000 0.0000 -15.3333 13.9787 5.7497 1.4286 -7.1250 0.0000 -0.0000 -10.6238 35.7326 2.4542 -0.0000 0.0000 0.0000 72.8506 -37.1538 48.8860 -47.3035 51.8483 -24.0369 0.0000 -0.0000 -26.6223 -21.3326 0.9931 -0.3878 7.1250 -0.0000 -0.0000 4.0824 -28.9036 1.6044
0.00 0.00 0.00 -7.6054 -3.3195 12.3734 0.0000 0.0000 0.0000 -12.1339 0.0391 -3.7726 4.1539 12.3624 37.0265 3.6955 -8.4113 39.8624 0.3211 3.6422 10.0722 0.0000 0.0000 0.0000 22.4164 11.6969 -7.9999 -6.7065 -15.0797 47.7554 -3.2653 -9.9310 32.6783 -0.8088 -5.7392 16.0296 5.9647 0.9713 4.3382 3.8076 1.7879 -1.4677 0.4652 0.7886 -3.9034 -12.4041 -7.0241 -17.9456 11.8835 -8.8754 17.2522 4.9369 -3.7545 9.5190 0.0000 0.0000 0.0000 -92.5911 33.6939 26.1755 36.7502 -46.0222 -16.0600 -0.0000 0.0000 -12.5600 18.8258 3.8642 1.3162 -7.1250 0.0000 -0.0000 -6.4063 34.0089 1.7365 0.0000 0.0000 0.0000 76.4175 -32.2445 41.6411 -42.1723 49.3055 -20.0711 0.0000 -0.0000 -26.5862 -13.9272 0.1569 -0.0389 7.1250 -0.0000 -0.0000 9.9097 -29.7445 3.7380
0.00 0.00 0.00 -7.3910 -5.6068 -11.7529 0.0000 0.0000 0.0000 -4.0017 -3.7034 -34.7840 11.2028 18.0329 63.4383 0.2536 -10.4506 -10.8453 0.2406 -3.1569 -8.7160 0.0000 0.0000 0.0000 23.8814 13.3471 -31.5353 -10.7539 -17.8125 61.9798 -0.5619 -1.0554 -14.5812 -0.0010 -0.2018 0.5546 3.8987 1.3069 17.8624 2.3245 2.5484 4.6185 -0.2919 1.2177 -4.9752 -13.4071 -6.9054 -13.5350 11.2137 -9.3084 22.3400 4.9902 -4.2415 10.5679 0.0000 -0.0000 0.0000 -89.1803 18.0237 25.4197 22.8786 -33.9558 -7.0704 -0.0000 0.0000 -12.2409 20.9483 3.5808 1.3697 -7.1250 0.0000 -0.0000 -4.6481 33.7863 1.2819 0.0000 -0.0000 0.0000 84.6715 -14.5072 39.1172 -28.7573 39.8041 -10.6050 0.0000 -0.0000 -23.2202 -21.9988 0.2207 -0.0892 7.1250 -0.0000 -0.0000 3.5900 -29.7326 1.3393
0.00 0.00 0.00 -9.9820 -4.3646 33.1186 0.0000 0.0000 0.0000 -4.1980 -5.5272 -44.7670 12.9317 18.7574 68.9133 3.1054 -3.9131 -32.4728 3.0961 -10.8491 -31.7725 0.0000 0.0000 0.0000 20.4879 20.3866 -41.1463 -12.1486 -18.4528 66.4591 -3.4074 -8.7150 -38.6456 -2.0252 8.9184 -25.5405 3.1266 1.3571 22.1102 3.2355 3.0454 -0.8916 0.8684 1.3120 -13.5178 -10.3619 -7.1243 -24.3520 20.3839 -6.2847 -13.8669 7.7234 -2.4125 0.8718 -0.0000 -0.0000 0.0000 -71.0089 16.3510 49.3273 77.2901 -59.3807 -49.0158 -0.0000 0.0000 -17.8371 14.9554 6.5074 1.7340 -7.1250 0.0000 -0.0000 -9.9349 36.5549 2.0888 -0.0000 -0.0000 0.0000 64.6938 -18.8505 50.9203 -74.0310 59.0142 -46.2162 0.0000 -0.0000 -20.5863 -6.6082 0.2019 -0.0234 7.1250 -0.0000 -0.0000 15.5481 -29.5854 6.0474
0.00 0.00 0.00 -9.5169 -4.7607 29.0418 0.0000 0.0000 0.0000 -6.9673 -2.3874 -32.3882 9.9087 17.3582 59.1829 2.1760 -7.2796 -26.5578 3.1829 -10.9853 -32.2305 0.0000 0.0000 0.0000 22.4669 15.1349 -29.2580 -9.4537 -17.0910 57.6464 -2.6910 -5.6130 -33.3473 -2.2378 9.3448 -26.8800 3.1518 1.2821 20.0355 3.2278 2.8791 -1.4761 0.9387 1.2485 -12.9973 -10.7348 -7.4186 -23.5739 20.6684 -6.9355 -11.6537 7.7635 -2.6619 1.5656 -0.0000 0.0000 0.0000 -63.8802 20.3930 55.8340 103.4962 -59.3004 -71.6606 -0.0000 0.0000 -16.1903 12.0330 6.7194 1.4287 -7.1250 0.0000 -0.0000 -12.3954 36.5981 2.6108 -0.0000 0.0000 0.0000 56.8010 -24.4966 56.7386 -94.7825 59.9134 -64.1405 0.0000 -0.0000 -14.1906 -0.5963 0.1357 -0.0014 7.1250 -0.0000 -0.0000 20.0955 -29.4973 8.0518
0.00 0.00 0.00 -8.4958 -5.0414 24.8205 0.0000 0.0000 0.0000 -10.1155 1.3909 -15.7247 5.3726 13.7914 42.4084 0.1358 -11.0848 -9.6731 2.8810 -10.4999 -30.6112 0.0000 0.0000 0.0000 22.2735 7.8720 -14.9217 -5.7562 -14.1878 43.9952 -0.8595 -1.1008 -17.9464 -2.2037 9.2780 -26.6689 3.4775 1.0932 13.6324 3.2480 2.4156 -2.8633 1.0155 1.0518 -10.8107 -11.6318 -7.6076 -21.4322 19.8020 -7.9804 -5.3572 7.4307 -3.0543 3.2684 -0.0000 -0.0000 0.0000 -55.9368 25.0711 64.0327 125.1244 -54.7821 -89.8857 -0.0000 0.0000 -11.8783 12.9989 5.8000 1.3364 -7.1250 0.0000 -0.0000 -11.4383 35.7319 2.6486 -0.0000 -0.0000 0.0000 45.5261 -30.3389 65.5880 -115.2676 57.4445 -81.6946 0.0000 -0.0000 -8.0078 5.6365 0.4924 0.0486 7.1250 -0.0000 -0.0000 24.5747 -28.9419 10.5220
0.00 0.00 0.00 -7.8877 -5.4236 23.1666 0.0000 0.0000 0.0000 -11.7714 1.8563 -7.6468 3.3904 11.3017 33.3041 -0.2836 -9.4363 4.4479 2.5134 -9.8623 -28.5320 0.0000 0.0000 0.0000 21.2097 5.9528 -8.8988 -4.3179 -12.5718 37.7861 -0.0259 -2.3402 -4.7765 -1.7321 8.2842 -23.5808 3.7621 1.0772 9.4664 3.2309 2.2258 -3.6997 0.9470 0.9654 -9.2720 -12.2048 -7.4884 -20.0951 18.6179 -8.3284 -0.8312 7.0818 -3.1960 4.4146 -0.0000 -0.0000 0.0000 -53.0417 27.0433 66.5936 130.2706 -52.8858 -94.0418 -0.0000 0.0000 -9.3799 13.6487 5.6025 1.3580 -7.1250 0.0000 -0.0000 -10.8721 35.5667 2.5580 -0.0000 -0.0000 0.0000 39.6966 -32.1343 70.2593 -122.9381 55.4748 -88.0918 0.0000 -0.0000 -8.3114 6.9351 -0.2997 -0.0365 7.1250 -0.0000 -0.0000 25.6923 -29.6038 10.6452
0.00 0.00 0.00 -7.2949 -6.1090 21.6233 0.0000 0.0000 0.0000 -13.7024 1.2547 -0.4966 2.0249 8.9177 25.5383 0.8692 -4.8748 20.0307 1.5689 -7.9036 -22.4218 0.0000 0.0000 0.0000 20.0276 5.6221 -4.1827 -3.4760 -11.4285 33.7389 -0.2206 -7.6688 9.2726 -0.6425 5.1278 -14.2736 4.1035 1.1515 5.4755 3.1994 2.1377 -4.4369 0.8090 0.9236 -7.7210 -12.5723 -7.2400 -18.7552 16.7135 -8.4465 3.9759 6.5161 -3.3067 5.5723 -0.0000 -0.0000 0.0000 -50.8045 28.8785 67.3868 132.8309 -51.7879 -96.0688 -0.0000 0.0000 -7.3137 13.8301 5.8271 1.4317 -7.1250 0.0000 -0.0000 -10.7586 35.8029 2.4675 -0.0000 -0.0000 0.0000 34.0603 -32.8206 74.2380 -128.7243 53.4972 -92.8037 0.0000 -0.0000 -9.1435 7.1158 -0.9662 -0.1206 7.1250 -0.0000 -0.0000 25.9892 -30.1991 10.3776
0.00 0.00 0.00 -6.6986 -8.5977 18.1003 0.0000 0.0000 0.0000 -17.1063 4.6859 1.7894 2.6200 10.0530 29.1484 4.4296 -4.1937 41.4051 0.0913 1.9491 5.3650 0.0000 0.0000 0.0000 18.8608 7.4031 -2.4680 -5.6574 -14.0879 43.5907 -1.8201 -14.8408 24.8389 -0.3240 -3.6586 10.1182 5.7860 1.3908 -0.5729 2.9927 2.0859 -4.8122 -0.2037 0.8692 -4.5774 -13.9406 -6.2345 -14.8186 13.9411 -7.5217 10.2821 6.0345 -3.1696 6.6440 -0.0000 0.0000 0.0000 -50.9231 32.7272 59.4381 128.6889 -53.5108 -92.7753 -0.0000 0.0000 -3.5362 13.2877 7.1843 1.6917 -7.1250 0.0000 -0.0000 -11.4377 37.1396 2.2480 -0.0000 0.0000 0.0000 28.3936 -28.7698 73.0111 -130.3598 52.8494 -94.1129 0.0000 -0.0000 -12.5828 8.1127 -1.6933 -0.2413 7.1250 -0.0000 -0.0000 26.8940 -30.8018 10.3805
0.00 0.00 0.00 -6.7686 -9.8603 14.5141 0.0000 0.0000 0.0000 -17.1013 8.6293 -3.3351 5.4243 13.8463 42.6251 4.4717 -4.3353 41.6464 0.3117 3.5891 9.9235 0.0000 0.0000 0.0000 19.5502 7.5919 -5.9132 -9.6745 -17.2227 58.3950 -1.8773 -19.2012 26.2573 -0.9978 -6.3569 17.8235 5.9700 1.2762 2.4944 2.8870 2.1222 -3.5141 -0.4853 0.8861 -4.9493 -13.9063 -5.9403 -14.2504 12.9613 -7.1919 11.9410 5.7651 -3.0991 6.9787 -0.0000 0.0000 0.0000 -58.6976 31.1323 49.7500 113.7171 -57.7641 -80.3855 -0.0000 0.0000 -2.4262 12.5866 9.0056 2.0017 -7.1250 0.0000 -0.0000 -12.3785 38.9161 1.8894 -0.0000 0.0000 0.0000 35.3927 -25.5253 65.6652 -117.2266 57.0048 -83.3418 0.0000 -0.0000 -13.7661 5.4456 -3.6949 -0.3520 7.1250 -0.0000 -0.0000 25.4911 -32.7642 8.3752
0.00 0.00 0.00 -6.5675 -10.0481 11.9249 0.0000 0.0000 0.0000 -16.6928 10.2348 -7.0009 7.3719 15.6373 50.2674 4.0632 -4.3765 39.7976 0.3888 4.0038 11.0873 0.0000 0.0000 0.0000 19.7566 6.2588 -9.3544 -12.3300 -18.5267 67.0310 -1.5144 -21.8333 25.1202 -1.4463 -7.6024 21.5127 5.5225 1.1895 5.4695 2.8211 2.1676 -2.5318 -0.3756 0.9201 -5.6241 -13.9150 -5.8224 -13.3581 12.2402 -7.1103 12.9825 5.5568 -3.1469 7.1152 -0.0000 -0.0000 0.0000 -64.8719 27.4954 44.2368 94.6621 -59.9177 -64.0364 -0.0000 0.0000 -3.4962 13.0539 10.8626 2.5019 -7.1250 0.0000 -0.0000 -12.3831 40.8082 1.3026 -0.0000 -0.0000 0.0000 42.0050 -23.1351 61.1941 -97.3003 59.7977 -66.3179 0.0000 -0.0000 -9.2165 -0.1547 -2.8279 0.0076 7.1250 -0.0000 -0.0000 21.0516 -32.2554 6.9848
0.00 0.00 0.00 -6.6765 -9.4424 10.6126 0.0000 0.0000 0.0000 -15.8618 10.2023 -11.5562 8.8577 16.7153 55.5966 2.9613 -4.9762 34.5358 0.3174 3.6213 10.0135 0.0000 0.0000 0.0000 20.1692 4.5408 -14.1246 -14.1437 -19.1570 72.6428 -0.9880 -21.8714 22.0656 -1.5133 -7.7687 22.0137 5.5272 1.0625 7.3266 2.7959 2.1008 -1.7460 -0.4359 0.8900 -5.8574 -14.3207 -5.7974 -12.2801 11.9825 -7.1551 13.7485 5.5580 -3.2465 7.1834 -0.0000 -0.0000 0.0000 -69.8692 23.0547 40.6732 73.1983 -58.9060 -45.5027 -0.0000 0.0000 -5.5177 14.8508 12.1845 3.2032 -7.1250 0.0000 -0.0000 -11.1206 42.3032 0.7501 -0.0000 -0.0000 0.0000 48.6559 -20.3468 57.3547 -71.8166 58.7131 -44.3208 0.0000 -0.0000 -4.6065 -5.7000 -1.3985 0.1396 7.1250 -0.0000 -0.0000 16.5066 -31.1095 5.8197
